<?xml version="1.0" encoding="UTF-8"?>
<svg  viewBox="0 0 72 72" version="1.1" xmlns="http://www.w3.org/2000/svg" xmlns:xlink="http://www.w3.org/1999/xlink">
    <!-- Generator: Sketch 49.2 (51160) - http://www.bohemiancoding.com/sketch -->
    <title>Tumblr</title>
    <desc>Created with Sketch.</desc>
    <defs></defs>
    <g id="Page-1" stroke="none" stroke-width="1" fill="none" fill-rule="evenodd">
        <g id="Social-Icons---Squared-Black" transform="translate(-152.000000, -267.000000)">
            <g id="Tumblr" transform="translate(152.000000, 267.000000)">
                <polygon id="Square" fill="#000000" points="0 72 72 72 72 0 0 0"></polygon>
                <path d="M47.7406584,50.3407377 C46.8671091,50.7664252 45.1965085,51.1367974 43.9507666,51.1686638 C40.1897087,51.2714782 39.4597404,48.4693359 39.4294354,46.4380008 L39.4294354,31.4953464 L48.8637092,31.4953464 L48.8637092,24.2273932 L39.4620942,24.2273932 L39.4620942,12 L32.5822681,12 C32.4689921,12 32.271274,12.1013112 32.2433228,12.3583471 C31.8408251,16.1005494 30.127268,22.6686434 23,25.294919 L23,31.4950458 L27.7546504,31.4950458 L27.7546504,47.1778433 C27.7546504,52.5479395 31.6313381,60.1769455 41.8653111,59.99687 C45.318317,59.936444 49.153225,58.4597653 50,57.1848071 L47.7406584,50.3407377" fill="#FFFFFF"></path>
            </g>
        </g>
    </g>
</svg>